<svg xmlns="http://www.w3.org/2000/svg" viewBox="0 0 172.11 113.06"><defs><linearGradient id="g1" x1="113.05" x2="0" y1="86.06" y2="86.06" gradientUnits="userSpaceOnUse"><stop offset="0" stop-color="#fff"/><stop offset=".28" stop-color="#fcfae1"/><stop offset=".76" stop-color="#f8f3b1"/><stop offset="1" stop-color="#f7f19f"/></linearGradient><linearGradient id="g2" x1="105.15" x2="25.2" y1="105.15" y2="25.21" gradientUnits="userSpaceOnUse"><stop offset="0" stop-color="#fff"/><stop offset=".38" stop-color="#cee6f4"/><stop offset=".79" stop-color="#9ecfea"/><stop offset="1" stop-color="#8cc6e6"/></linearGradient><linearGradient id="g3" x1="86.06" x2="86.06" y1="113.06" y2="0" gradientUnits="userSpaceOnUse"><stop offset="0" stop-color="#fff"/><stop offset=".36" stop-color="#dbd2e5"/><stop offset=".79" stop-color="#b6a2ca"/><stop offset="1" stop-color="#a890c0"/></linearGradient><linearGradient id="g4" x1="66.96" x2="146.91" y1="105.15" y2="25.21" gradientUnits="userSpaceOnUse"><stop offset="0" stop-color="#fff"/><stop offset=".19" stop-color="#f8edf0"/><stop offset=".73" stop-color="#e8bdc9"/><stop offset="1" stop-color="#e2abba"/></linearGradient><linearGradient id="g5" x1="59.06" x2="172.11" y1="86.06" y2="86.06" gradientUnits="userSpaceOnUse"><stop offset="0" stop-color="#fff"/><stop offset=".32" stop-color="#daeae8"/><stop offset=".77" stop-color="#aad1ca"/><stop offset="1" stop-color="#98c7bf"/></linearGradient></defs><path fill="url(#g1)" d="M86.06 113.06H27c-14.91 0-27-12.09-27-27s12.09-27 27-27h59.06c14.91 0 27 12.09 27 27s-12.09 27-27 27"/><path fill="url(#g2)" d="M86.06 113.06c-6.91 0-13.82-2.64-19.09-7.91L25.2 63.39c-10.54-10.54-10.54-27.64 0-38.18s27.64-10.54 38.18 0l41.76 41.76c10.54 10.54 10.54 27.64 0 38.18a26.92 26.92 0 0 1-19.09 7.91Z"/><path fill="url(#g3)" d="M86.06 113.06c-14.91 0-27-12.09-27-27V27c0-14.91 12.09-27 27-27s27 12.09 27 27v59.06c0 14.91-12.09 27-27 27"/><path fill="url(#g4)" d="M86.06 113.06c-6.91 0-13.82-2.64-19.09-7.91-10.54-10.54-10.54-27.64 0-38.18l41.75-41.76c10.54-10.54 27.64-10.54 38.18 0s10.54 27.64 0 38.18l-41.76 41.76a26.92 26.92 0 0 1-19.09 7.91Z"/><path fill="url(#g5)" d="M145.11 113.06H86.05c-14.91 0-27-12.09-27-27s12.09-27 27-27h59.06c14.91 0 27 12.09 27 27s-12.09 27-27 27"/><circle cx="86.06" cy="86.06" r="27" fill="#fff"/></svg>